<?xml version="1.0" encoding="UTF-8"?><svg id="a" xmlns="http://www.w3.org/2000/svg" viewBox="0 0 26 30"><path fill="#ffffff" id="b" d="m13.22,29h0c-4.18-.03-7.39-1.41-9.55-4.09-1.92-2.39-2.91-5.72-2.94-9.89v-.02c.03-4.17,1.02-7.5,2.94-9.89C5.82,2.41,9.03,1.03,13.21,1h.02c3.2.02,5.88.85,7.96,2.45,1.96,1.51,3.33,3.65,4.09,6.38l-2.38.66c-1.29-4.62-4.55-6.98-9.69-7.02-3.39.02-5.96,1.09-7.63,3.17-1.56,1.95-2.37,4.76-2.4,8.36.03,3.6.84,6.41,2.4,8.36,1.67,2.08,4.24,3.15,7.63,3.17,3.06-.02,5.08-.74,6.77-2.38,1.92-1.88,1.89-4.19,1.27-5.6-.36-.83-1.02-1.52-1.91-2.04-.22,1.58-.72,2.85-1.5,3.82-1.03,1.29-2.5,1.99-4.35,2.09-1.4.08-2.75-.26-3.8-.93-1.24-.8-1.97-2.03-2.04-3.46-.08-1.39.47-2.67,1.55-3.59,1.03-.89,2.47-1.41,4.18-1.51,1.26-.07,2.44-.02,3.52.17-.14-.87-.44-1.55-.87-2.05-.6-.68-1.53-1.03-2.75-1.04h-.03c-.99,0-2.32.27-3.18,1.54l-2.05-1.38c1.14-1.7,3-2.63,5.23-2.63h.05c3.73.02,5.95,2.3,6.17,6.29.13.05.25.11.37.17,1.74.82,3.01,2.06,3.68,3.58.93,2.13,1.02,5.59-1.81,8.35-2.16,2.11-4.77,3.06-8.49,3.09h0,0Zm1.17-13.64c-.28,0-.57,0-.86.03-2.14.12-3.48,1.1-3.4,2.5.08,1.46,1.7,2.14,3.25,2.06,1.43-.08,3.29-.63,3.6-4.33-.79-.17-1.66-.26-2.58-.26Z"/></svg>